<svg width="56" height="48" viewBox="0 0 56 48" fill="none" xmlns="http://www.w3.org/2000/svg">
<g clip-path="url(#clip0_7_28)">
<path d="M55.5 24L41.75 47.75H14.25L0.5 24L14.25 0.25L41.75 0.25L55.5 24ZM49.7225 24L38.8675 5.25L17.1325 5.25L6.2775 24L17.1325 42.75H38.8675L49.7225 24ZM18 24C18 21.3478 19.0536 18.8043 20.9289 16.9289C22.8043 15.0536 25.3478 14 28 14C30.6522 14 33.1957 15.0536 35.0711 16.9289C36.9464 18.8043 38 21.3478 38 24C38 26.6522 36.9464 29.1957 35.0711 31.0711C33.1957 32.9464 30.6522 34 28 34C25.3478 34 22.8043 32.9464 20.9289 31.0711C19.0536 29.1957 18 26.6522 18 24ZM23 24C23 25.3261 23.5268 26.5979 24.4645 27.5355C25.4021 28.4732 26.6739 29 28 29C29.3261 29 30.5979 28.4732 31.5355 27.5355C32.4732 26.5979 33 25.3261 33 24C33 22.6739 32.4732 21.4021 31.5355 20.4645C30.5979 19.5268 29.3261 19 28 19C26.6739 19 25.4021 19.5268 24.4645 20.4645C23.5268 21.4021 23 22.6739 23 24Z" fill="white"/>
</g>
<defs>
<clipPath id="clip0_7_28">
<rect width="48" height="56" fill="white" transform="matrix(0 1 -1 0 56 0)"/>
</clipPath>
</defs>
</svg>
