<svg width="60" height="60" viewBox="0 0 60 60" fill="none" xmlns="http://www.w3.org/2000/svg">
<path d="M20.625 33.75L23.2687 36.3937L28.125 31.5562V54.375H31.875V31.5562L36.7313 36.3937L39.375 33.75L30 24.375L20.625 33.75Z" fill="white"/>
<path d="M44.0625 41.25H43.125V37.5H44.0625C46.3002 37.5895 48.4819 36.7864 50.1275 35.2674C51.7732 33.7483 52.748 31.6378 52.8375 29.4C52.927 27.1622 52.1239 24.9806 50.6048 23.3349C49.0858 21.6893 46.9752 20.7145 44.7375 20.625H43.125L42.9375 19.0875C42.5215 15.9308 40.9722 13.033 38.5783 10.9338C36.1843 8.83466 33.1089 7.67728 29.925 7.67728C26.741 7.67728 23.6656 8.83466 21.2717 10.9338C18.8777 13.033 17.3285 15.9308 16.9125 19.0875L16.875 20.625H15.2625C13.0247 20.7145 10.9142 21.6893 9.39512 23.3349C7.87607 24.9806 7.07297 27.1622 7.16248 29.4C7.25199 31.6378 8.22678 33.7483 9.87241 35.2674C11.518 36.7864 13.6997 37.5895 15.9375 37.5H16.875V41.25H15.9375C12.9307 41.231 10.0372 40.1011 7.81308 38.0777C5.58899 36.0542 4.19139 33.2801 3.88897 30.2885C3.58656 27.297 4.40069 24.2992 6.17483 21.8716C7.94897 19.444 10.5579 17.7579 13.5 17.1375C14.3094 13.3622 16.389 9.9787 19.3918 7.5515C22.3946 5.1243 26.1389 3.80024 30 3.80024C33.8611 3.80024 37.6054 5.1243 40.6081 7.5515C43.6109 9.9787 45.6905 13.3622 46.5 17.1375C49.4421 17.7579 52.051 19.444 53.8251 21.8716C55.5993 24.2992 56.4134 27.297 56.111 30.2885C55.8086 33.2801 54.411 36.0542 52.1869 38.0777C49.9628 40.1011 47.0692 41.231 44.0625 41.25Z" fill="white"/>
</svg>
